<?xml version="1.0" standalone="no"?>
<!DOCTYPE svg PUBLIC "-//W3C//DTD SVG 1.1//EN" "http://www.w3.org/Graphics/SVG/1.1/DTD/svg11.dtd" >
<!--
2013-9-30: Created.
-->
<svg>
<metadata>
Created by iconfont
</metadata>
<defs>

<font id="iconfont" horiz-adv-x="1024" >
  <font-face
    font-family="iconfont"
    font-weight="500"
    font-stretch="normal"
    units-per-em="1024"
    ascent="896"
    descent="-128"
  />
    <missing-glyph />
    
    <glyph glyph-name="search" unicode="&#58950;" d="M441.92 736a279.68 279.68 0 0 0 109.76-22.08 282.4 282.4 0 0 0 149.92-150.24 282.56 282.56 0 0 0-60.32-309.44 283.04 283.04 0 0 0-89.6-60.48A281.76 281.76 0 0 0 160 453.44 282.4 282.4 0 0 0 332.32 713.6a278.88 278.88 0 0 0 109.6 22.4m0 64a346.56 346.56 0 1 1 346.08-346.56A346.24 346.24 0 0 1 441.92 800zM896-32a32 32 0 0 0-22.56 9.44L707.2 144a32 32 0 0 0 0 45.44 32 32 0 0 0 45.28 0l166.08-166.56A32 32 0 0 0 896-32z"  horiz-adv-x="1024" />

    
    <glyph glyph-name="right-arrow" unicode="&#58951;" d="M324.16 800a40.16 40.16 0 0 0 27.84-11.84l376.32-375.52a40.16 40.16 0 0 0 11.68-28.64 40.96 40.96 0 0 0-11.68-28.8L352-20.159999999999968a40.32 40.32 0 1 0-56.96 56.96L643.04 384 295.68 731.2A40.32 40.32 0 0 0 324.16 800z"  horiz-adv-x="1024" />

    
    <glyph glyph-name="Navigationunchecked" unicode="&#58957;" d="M97.6 798.4m128 0l128 0q128 0 128-128l0-128q0-128-128-128l-128 0q-128 0-128 128l0 128q0 128 128 128ZM97.6 353.28m128 0l128 0q128 0 128-128l0-128q0-128-128-128l-128 0q-128 0-128 128l0 128q0 128 128 128ZM542.08 353.28m128 0l128 0q128 0 128-128l0-128q0-128-128-128l-128 0q-128 0-128 128l0 128q0 128 128 128ZM734.08 750.72a80 80 0 0 0 56.64-23.36l64-64a80 80 0 0 0 0-113.12l-64-64a80 80 0 0 0-113.12 0l-64 64a80 80 0 0 0 0 113.12l64 64a80 80 0 0 0 56.48 23.36m0 48a128 128 0 0 1-90.56-37.44l-64-64a128 128 0 0 1 0-181.12l64-64a128 128 0 0 1 181.12 0l64 64a128 128 0 0 1 0 181.12l-64 64a128 128 0 0 1-90.56 37.44z"  horiz-adv-x="1024" />

    
    <glyph glyph-name="Marketunselected" unicode="&#58958;" d="M512 832a448 448 0 1 1 448-448A448 448 0 0 1 512 832z m322.24-315.2v-172.64a41.6 41.6 0 0 0-83.04 0v72.8l-195.2-195.36a41.6 41.6 0 0 0-58.72 0l-128 128-108.32-108.48a41.6 41.6 0 1 0-58.72 58.72l137.76 137.76a41.6 41.6 0 0 0 58.72 0l128-128 165.92 165.92h-72.8a41.6 41.6 0 0 0 0 83.04h173.12a41.28 41.28 0 0 0 27.04-10.24 32 32 0 0 0 5.6-5.92 40.48 40.48 0 0 0 8.48-22.4 20.32 20.32 0 0 0 0.16-3.2z"  horiz-adv-x="1024" />

    
    <glyph glyph-name="Communityunchecked" unicode="&#58959;" d="M923.36 558.24a451.84 451.84 0 0 1-96 142.56l-6.08 6.08a450.24 450.24 0 0 1-627.52-6.08v-2.08A451.36 451.36 0 0 1 64 382.88a444.16 444.16 0 0 1 22.4-138.56A507.52 507.52 0 0 1 144 128l4-4v-170.88a17.6 17.6 0 0 1 16-16h347.04a469.28 469.28 0 0 1 174.72 34.72 450.24 450.24 0 0 1 142.08 96l6.08 6.24A442.56 442.56 0 0 1 960 385.12a518.24 518.24 0 0 1-36.48 173.12zM280.48 317.12a76.8 76.8 0 1 0 76.48 76.8 76.64 76.64 0 0 0-76.48-76.8z m237.28 0a76.8 76.8 0 1 0 76.48 76.8 76.64 76.64 0 0 0-76.48-76.8z m237.28 0a76.8 76.8 0 1 0 76.96 76.8 76.64 76.64 0 0 0-76.48-76.8z"  horiz-adv-x="1024" />

    
    <glyph glyph-name="Assetsunchecked" unicode="&#58960;" d="M512 832a448 448 0 1 1 448-448A448 448 0 0 1 512 832z m1.12-756.64h-2.24A334.88 334.88 0 0 1 221.76 380.8 334.88 334.88 0 0 1 512 692.64h1.6A334.72 334.72 0 0 1 802.24 380.8a334.72 334.72 0 0 1-289.12-305.44z"  horiz-adv-x="1024" />

    
    <glyph glyph-name="Myunchecked" unicode="&#58961;" d="M842.08-37.6A334.72 334.72 0 0 1 752 126.08a340.96 340.96 0 0 1-121.28 78.08 326.08 326.08 0 0 1 208 304 322.24 322.24 0 0 1-96 229.6A325.6 325.6 0 0 1 526.56 832h-29.28a324.48 324.48 0 0 1-216.48-554.24 321.6 321.6 0 0 1 114.08-73.92 340.64 340.64 0 0 1-98.72-57.6A203.84 203.84 0 0 1 273.6 128a342.72 342.72 0 0 1-91.52-165.12 20.96 20.96 0 0 1 9.92-23.2 12.16 12.16 0 0 1 2.88-1.44 20.96 20.96 0 0 1 9.44-2.24 16 16 0 0 1 3.68 0h617.28v0.96a21.28 21.28 0 0 1 16.8 25.44zM336 395.2a29.28 29.28 0 0 0 0 29.44 28.96 28.96 0 0 0 25.28 14.24 29.76 29.76 0 0 0 25.6-15.04 142.4 142.4 0 0 1 250.88 0 29.6 29.6 0 0 0 25.92 15.2 28.96 28.96 0 0 0 24.96-14.24 29.44 29.44 0 0 0 0-29.28A201.44 201.44 0 0 0 336 395.2z"  horiz-adv-x="1024" />

    
    <glyph glyph-name="downarrow" unicode="&#58962;" d="M928 571.84a40.16 40.16 0 0 0-11.84-27.84L540.64 167.68a40.16 40.16 0 0 0-28.48-11.68 40.96 40.96 0 0 0-28.8 11.68L107.84 544a40.32 40.32 0 1 0 56.96 56.96L512 252.96l347.2 347.36a40.32 40.32 0 0 0 68.8-28.48z"  horiz-adv-x="1024" />

    
    <glyph glyph-name="leftarrow" unicode="&#58963;" d="M699.84-32a40.16 40.16 0 0 0-27.84 11.84L295.68 355.36a40.16 40.16 0 0 0-11.68 28.64 40.96 40.96 0 0 0 11.68 28.8L672 788.16a40.32 40.32 0 1 0 56.96-56.96L380.96 384l347.36-347.2a40.32 40.32 0 0 0-28.48-68.8z"  horiz-adv-x="1024" />

    
    <glyph glyph-name="uparrow" unicode="&#58964;" d="M96 196.16A40.16 40.16 0 0 0 107.84 224l375.52 376.32a40.16 40.16 0 0 0 28.64 11.68 40.96 40.96 0 0 0 28.8-11.68L916.16 224a40.32 40.32 0 1 0-56.96-56.96L512 515.04 164.8 167.68A40.32 40.32 0 0 0 96 196.16z"  horiz-adv-x="1024" />

    
    <glyph glyph-name="Explain" unicode="&#58966;" d="M512 540.64a52.48 52.48 0 1 0 52.32 52.48A52.32 52.32 0 0 0 512 540.64z m-38.24-109.6a38.72 38.72 0 0 0 77.44 0v-269.76a38.72 38.72 0 0 0-77.44 0zM512 832a448 448 0 1 1 448-448A448 448 0 0 1 512 832z m0-832a384 384 0 1 0 384 384 384 384 0 0 0-384-384z"  horiz-adv-x="1024" />

    
    <glyph glyph-name="Notice" unicode="&#58968;" d="M922.72 423.84H750.88a37.28 37.28 0 0 1-37.28-36.96v-11.04a37.28 37.28 0 0 1 37.28-37.12h171.84A37.28 37.28 0 0 1 960 375.84v11.04a35.04 35.04 0 0 1-37.28 36.96z m-400 311.04c-52.32-44.48-168-103.68-246.4-162.88a3.68 3.68 0 0 0-3.68-3.68c-11.2-3.68-15.04-22.24-67.2-22.24H105.12c-26.24 0-41.12-11.2-41.12-40.8v-248c0-29.6 14.88-40.64 41.12-40.64h100.8c52.16 0 56-14.88 67.2-22.24a3.68 3.68 0 0 1 3.68-3.68c78.4-59.2 190.4-125.92 246.4-166.56 14.88-11.2 70.88-33.28 70.88 44.32v625.6c0 81.44-56 55.52-70.88 40.8z m160-170.24a24.8 24.8 0 0 1 41.12-7.52l141.92 122.24c14.88 11.04 14.88 33.28 7.36 51.84l-3.68 11.04a24.8 24.8 0 0 1-41.12 7.36L688 627.52c-16-11.04-16-33.28-8-51.52z m42.08-355.36a27.2 27.2 0 0 1-41.12-7.52l-3.68-11.04a44.32 44.32 0 0 1 8-51.84L829.28 16a27.04 27.04 0 0 1 41.12 7.36l3.68 11.04a44.48 44.48 0 0 1-7.36 51.84z"  horiz-adv-x="1024" />

    
    <glyph glyph-name="star" unicode="&#58969;" d="M917.44 430.72c-56.96-72.32-160-192-160-192s16-129.28 25.92-217.28c5.12-46.56-25.92-62.08-67.36-46.56-72.32 36.32-176 88-201.76 103.52-25.76-10.4-134.4-67.2-201.76-98.24-36.16-16-72.32 0-67.2 46.56 10.4 87.84 25.92 217.28 25.92 217.28s-103.52 118.88-165.6 192c-20.64 25.76-5.12 62.08 36.32 67.2C224 518.72 358.72 544 358.72 544S432 673.92 477.76 756.64c25.92 46.56 41.44 41.44 46.56 41.44A97.6 97.6 0 0 0 560 756.64C607.04 673.92 674.4 544 674.4 544s129.28-25.92 212-41.44c41.44-10.4 51.68-46.56 31.04-72.48z"  horiz-adv-x="1024" />

    
    <glyph glyph-name="edit" unicode="&#58970;" d="M800-26.4a34.4 34.4 0 0 0-34.56-35.68H499.52a34.72 34.72 0 0 0-33.44 35.68V-6.4a34.72 34.72 0 0 0 33.44 35.68h266.56a33.76 33.76 0 0 0 24.16-10.88A34.56 34.56 0 0 0 800-6.4zM369.12 44.32c-64-38.88-112-62.88-167.36-92-36.8-13.92-70.24-23.84-94.72 0s-16.8 64-3.36 103.2c26.72 61.92 49.6 112 85.76 179.04l426.72 455.52 177.76-190.08zM904.96 607.04l-39.04-41.76L686.88 758.08 725.44 800a93.12 93.12 0 0 0 137.12 0l42.4-45.12a112 112 0 0 0 0-147.84z"  horiz-adv-x="1024" />

    
    <glyph glyph-name="Uppertriangle" unicode="&#58971;" d="M81.12 192l346.88 480c37.12 50.56 130.08 50.56 167.2 0L944 192c37.12-50.56 10.4-133.92-64-133.92H144c-74.4 0-100 83.36-62.72 133.92z"  horiz-adv-x="1024" />

    
    <glyph glyph-name="Lowertriangle" unicode="&#58972;" d="M942.88 576L596 96c-37.12-50.56-130.08-50.56-167.2 0L80.8 576c-37.12 50.56-10.4 133.92 64 133.92H880c74.4 0 100-83.36 62.72-133.92z"  horiz-adv-x="1024" />

    
    <glyph glyph-name="Fire" unicode="&#58973;" d="M455.52 832s73.44-144-162.4-386.72C58.72 180.8 280.64-1.6 466.4-64c0 0-129.12 126.72-9.28 281.6C512 283.2 592 358.4 592 358.4s151.52-251.84-48-422.4c0 0 354.72 70.56 278.08 437.76C753.92 651.68 455.52 832 455.52 832z"  horiz-adv-x="1024" />

    
    <glyph glyph-name="Setup" unicode="&#58975;" d="M646.24-32a58.4 58.4 0 0 0-42.24 17.76c-14.08 15.04-58.24 54.08-94.4 54.08S428.96 0 416-13.12a57.76 57.76 0 0 0-42.08-17.44 52.96 52.96 0 0 0-21.92 4.16h-1.12l-109.92 60.32-0.96 1.44a51.2 51.2 0 0 0-17.76 62.72 130.4 130.4 0 0 1 10.08 43.68A115.52 115.52 0 0 1 116.16 256H112c-18.4 0-33.44 16-38.08 40.96A536 536 0 0 0 64 384a536 536 0 0 0 9.44 86.4c4.8 24.8 20.16 41.6 38.56 40.48h3.84a115.68 115.68 0 0 1 116.48 114.56 133.28 133.28 0 0 1-10.08 44A51.2 51.2 0 0 0 240 732h1.12l116 62.72h1.28A53.76 53.76 0 0 0 380 800a58.88 58.88 0 0 0 42.08-17.12c13.76-14.08 57.12-50.88 92.32-50.88S592 768 606.08 781.92a58.72 58.72 0 0 0 41.76 16 56 56 0 0 0 21.6-4.32h1.12l112-61.28h1.12a51.52 51.52 0 0 0 17.76-62.72 126.4 126.4 0 0 1-10.08-43.84 115.68 115.68 0 0 1 116.48-114.56H912c18.72 0 34.08-16 38.88-40.8A536 536 0 0 0 960 384a536 536 0 0 0-9.44-86.4C945.76 272 930.4 256 912 256h-3.84a115.52 115.52 0 0 1-116.48-114.56 131.84 131.84 0 0 1 10.08-43.84A51.04 51.04 0 0 0 784 35.36l-1.12-0.8-113.92-61.92h-1.12a56.64 56.64 0 0 0-21.28-4.16z m-3.36 52.8a8.16 8.16 0 0 1 3.36-0.96l106.56 57.92a176 176 0 0 0-14.4 64 167.84 167.84 0 0 0 160 166.24A501.44 501.44 0 0 1 907.2 384a501.44 501.44 0 0 1-8.16 75.68 167.84 167.84 0 0 0-160 166.08 176 176 0 0 0 14.4 64l-105.28 56.96a8.16 8.16 0 0 1-4-0.96 295.84 295.84 0 0 0-38.72-32 162.72 162.72 0 0 0-90.72-33.6 163.04 163.04 0 0 0-91.52 34.24 291.68 291.68 0 0 0-38.88 32 9.28 9.28 0 0 1-4.16 0.96l-108.48-58.56a172.32 172.32 0 0 0 14.4-64 168 168 0 0 0-160-166.24A496 496 0 0 1 116.8 384a501.44 501.44 0 0 1 8.16-75.68 167.84 167.84 0 0 0 160-166.24 174.88 174.88 0 0 0-14.4-64l102.72-56.32a8.64 8.64 0 0 1 3.52 0.8A282.56 282.56 0 0 0 416 56a162.4 162.4 0 0 0 92.96 35.84 162.72 162.72 0 0 0 93.76-36.48 312 312 0 0 0 39.52-34.56z m-132.8 210.88A152.64 152.64 0 1 0 665.12 384a154.08 154.08 0 0 0-155.04-152.64z m0 253.28a100.8 100.8 0 1 1 102.4-100.96 101.6 101.6 0 0 1-102.4 100.64z"  horiz-adv-x="1024" />

    
    <glyph glyph-name="time" unicode="&#58977;" d="M512 768A384 384 0 1 0 128 384 384 384 0 0 0 512 768m0 64a448 448 0 1 1 448-448A448 448 0 0 1 512 832zM704 288H490.08a32 32 0 0 0-32 32V581.12a32 32 0 0 0 64 0V352H704a32 32 0 0 0 0-64z"  horiz-adv-x="1024" />

    
    <glyph glyph-name="Quotation" unicode="&#58978;" d="M512 832A448 448 0 0 1 98.88 210.24l182.88 182.72a74.88 74.88 0 0 0 105.76 0L448 332a37.28 37.28 0 0 1 52.96 0l182.24 182.4h-114.72a37.12 37.12 0 0 0-37.28 37.12 37.12 37.12 0 0 0 37.28 37.28h205.12a37.12 37.12 0 0 0 37.28-37.28v-205.12a37.12 37.12 0 0 0-37.28-37.28A37.12 37.12 0 0 0 736 346.4v115.52l-208-208a74.88 74.88 0 0 0-105.76 0l-60.96 60.96a37.12 37.12 0 0 1-52.8 0L135.68 141.12A448 448 0 1 1 512 832z"  horiz-adv-x="1024" />

    
    <glyph glyph-name="Quotation1" unicode="&#58979;" d="M894.4-32H141.12a36.8 36.8 0 0 0-34.72 35.68V224c0 35.84 17.44 54.56 35.84 36.64l101.76-82.72c13.76-12 34.4-28.48 45.76-14.24l116.8 146.24c11.52 14.24 32 34.56 45.92 22.56l100.48-90.24c13.76-11.84 42.4-32 53.6-18.24l250.08 310.24c33.76 39.68 71.36 30.4 71.36-18.24v-512A35.84 35.84 0 0 0 894.4-32M601.28 349.44a55.04 55.04 0 0 0-37.92-21.76 53.92 53.92 0 0 0-41.44 13.12l-113.28 98.4-113.92-154.88a55.04 55.04 0 0 0-37.44-22.24h-6.72a54.24 54.24 0 0 0-34.88 12.8L116.32 358.4a58.24 58.24 0 0 0-7.84 80 54.4 54.4 0 0 0 77.92 8l54.88-46.4 114.4 155.52a54.24 54.24 0 0 0 80 9.28l113.92-98.88L696.64 656 656 691.68c-29.12 24.8-22.56 51.84 14.4 60l213.44 46.4c36.96 8.16 48-10.56 25.44-41.6L601.28 349.44"  horiz-adv-x="1024" />

    
    <glyph glyph-name="remind" unicode="&#58980;" d="M583.52 30.56H417.28a94.72 94.72 0 0 1 189.28 0zM832 297.76V464A305.28 305.28 0 0 1 598.24 764.64a88.16 88.16 0 0 1-172.32-4.16A309.92 309.92 0 0 1 207.04 464v-155.52A157.28 157.28 0 0 1 133.44 176v-2.08A150.24 150.24 0 0 1 146.08 112l2.08-2.08a52.16 52.16 0 0 1 33.6-29.44 47.04 47.04 0 0 1 18.88-2.08h624.8a26.4 26.4 0 0 1 12.48 2.08 49.6 49.6 0 0 1 40 29.44 160 160 0 0 1 12.64 63.04V176A152.32 152.32 0 0 1 832 297.76z m-182.08 104.8c-21.28-30.24-167.04-220.64-167.04-220.64s-35.84-22.4-30.24 19.04a1067.68 1067.68 0 0 0 36.96 133.28l-104.16-3.36s-35.84 1.12-11.2 34.72c16 21.28 160 203.84 160 203.84s23.52 30.24 42.56 20.16-39.2-140-39.2-140-4.48-7.84 7.84-7.84h100.8s25.76-7.84 3.68-39.2z"  horiz-adv-x="1024" />

    
    <glyph glyph-name="Rightarrowbold" unicode="&#58981;" d="M791.36 377.6a74.24 74.24 0 0 1-28.32 66.72c-14.08 12.96-27.84 26.08-41.6 39.36l-112 107.2-123.68 118.08-88 84.16-16 16A89.92 89.92 0 0 1 319.04 832a87.04 87.04 0 0 1-61.76-23.84 77.76 77.76 0 0 1 0.8-115.52L582.56 384 258.08 75.52A80.8 80.8 0 0 1 232 16a76.32 76.32 0 0 1 26.08-57.44A94.08 94.08 0 0 1 320.96-64a84.48 84.48 0 0 1 60.32 23.2l48 45.28 110.08 105.12 124.96 119.36 92.32 88.32a106.56 106.56 0 0 1 35.36 59.68z"  horiz-adv-x="1024" />

    
    <glyph glyph-name="cancel" unicode="&#58982;" d="M512 832a448 448 0 1 1 448-448A448 448 0 0 1 512 832m188.16-636.16a32 32 0 0 0-44.8 0l-144 144-144-144a32 32 0 0 0-44.8 44.8l144 144-144 144a32 32 0 0 0 44.8 44.8l144-144 144 144a32 32 0 0 0 44.8-44.8l-144-144 144-144a28 28 0 0 0 0-44.8"  horiz-adv-x="1024" />

    
    <glyph glyph-name="Choice" unicode="&#58983;" d="M512 832a448 448 0 1 1 448-448A448 448 0 0 1 512 832z m247.68-326.24l-288-288a32 32 0 0 0-45.12 0L264.32 378.4a32 32 0 0 0 45.28 45.28L448 284.96l266.4 265.92a32 32 0 0 0 45.28-45.12z"  horiz-adv-x="1024" />

    
    <glyph glyph-name="drag" unicode="&#58984;" d="M897.44 681.76H126.56a32 32 0 0 0 0 64h770.88a32 32 0 0 0 0-64zM897.44 352H126.56a32 32 0 0 0 0 64h770.88a32 32 0 0 0 0-64zM897.44 22.24H126.56a32 32 0 0 0 0 64h770.88a32 32 0 0 0 0-64z"  horiz-adv-x="1024" />

    
    <glyph glyph-name="Top" unicode="&#58985;" d="M896 734.24H128a32 32 0 0 0 0 64h768a32 32 0 1 0 0-64zM512-30.24a32 32 0 0 0-32 32V524L205.12 248.96A32 32 0 0 0 160 294.24L489.44 624A32 32 0 0 0 544 601.12v-599.36a32 32 0 0 0-32-32zM841.6 240a32 32 0 0 0-22.72 9.28L489.44 578.56A32 32 0 0 0 534.56 624L864 294.24a32 32 0 0 0 0-45.28 32 32 0 0 0-22.4-8.96z"  horiz-adv-x="1024" />

    
    <glyph glyph-name="delete" unicode="&#58986;" d="M379.52 138.72a32 32 0 0 0-32 32V430.24a32 32 0 0 0 64 0v-259.36a32 32 0 0 0-32-32.16zM513.28 138.72a32 32 0 0 0-32 32V430.24a32 32 0 0 0 64.8 0v-259.36a32 32 0 0 0-32.8-32.16zM647.2 138.72a32 32 0 0 0-32 32V430.24a32 32 0 0 0 64 0v-259.36a32 32 0 0 0-32-32.16zM896 642.24H674.24a162.24 162.24 0 0 1-324.32 0H128a32 32 0 1 1 0-64h67.52v-464A145.76 145.76 0 0 1 341.76-32h340.64a145.76 145.76 0 0 1 145.76 145.28v464H896a32 32 0 1 1 0 64z m-480 0a97.28 97.28 0 0 0 194.4 0H414.88v0.32z m347.36-528.96a80.96 80.96 0 0 0-80.96-80H341.76a81.12 81.12 0 0 0-81.12 80v464h502.72zM260.64 578.08H763.2v-0.32H260.64zM763.36 642.56h-89.12 96z m-502.72 0h-6.56 96z m154.24 0h194.4z"  horiz-adv-x="1024" />

    
    <glyph glyph-name="Praise-solid" unicode="&#58987;" d="M708 752C630.88 752 560 676.48 512 620.32 464.8 676.48 393.12 752 316 752 177.12 752 64 642.4 64 508.32c0-80 40.48-136 73.12-181.12 94.56-130.88 332.48-293.92 342.88-300.8a57.6 57.6 0 0 1 64 0c10.08 6.88 248 169.92 342.56 300.8 32 45.12 73.12 101.12 73.12 181.12C960 642.4 846.88 752 708 752z"  horiz-adv-x="1024" />

    
    <glyph glyph-name="Praise-Hollow" unicode="&#58988;" d="M708 688C811.68 688 896 608 896 508.8c0-59.2-31.04-102.24-60.96-144-69.6-96-240-225.44-323.04-282.88-83.52 57.28-253.6 186.56-323.04 282.72C159.04 406.08 128 449.12 128 508.32 128 607.2 212.32 688 316 688c37.28 0 86.72-36.48 146.88-108.32L512 520.64l49.12 58.56c60.16 71.84 109.6 108.8 146.88 108.8m0 64C630.88 752 560 676.48 512 620.32 464.8 676.48 393.12 752 316 752 177.12 752 64 642.4 64 508.32c0-80 40.48-136 73.12-181.12 94.56-130.88 332.48-293.92 342.88-300.8a57.6 57.6 0 0 1 64 0c10.08 6.88 248 169.92 342.56 300.8 32 45.12 73.12 101.12 73.12 181.12C960 642.4 846.88 752 708 752z"  horiz-adv-x="1024" />

    
    <glyph glyph-name="comment" unicode="&#58989;" d="M512-32a27.84 27.84 0 0 0-15.2 4.64l-234.08 154.08C156.64 198.24 96 307.2 96 426.08 96 632.32 282.56 800 512 800s416-167.68 416-373.92A362.72 362.72 0 0 0 763.2 128l-1.76-1.28L528-27.36a27.84 27.84 0 0 0-16-4.64zM293.12 172.32c8-4.64 19.36-12 36.64-23.36L512 28.96l204.96 134.88 2.88 2.08c96 59.68 152.64 156.96 152.64 260.16 0 176-161.76 318.4-360.48 318.4S151.52 601.6 151.52 426.08c0-100 51.68-192 141.92-253.28zM334.56 405.6m-45.92 0a45.92 45.92 0 1 1 91.84 0 45.92 45.92 0 1 1-91.84 0ZM512 405.6m-45.92 0a45.92 45.92 0 1 1 91.84 0 45.92 45.92 0 1 1-91.84 0ZM689.44 405.6m-45.92 0a45.92 45.92 0 1 1 91.84 0 45.92 45.92 0 1 1-91.84 0Z"  horiz-adv-x="1024" />

    
    <glyph glyph-name="share" unicode="&#58990;" d="M512-32a416 416 0 0 0 0 832 27.84 27.84 0 0 0 0-55.52A360.48 360.48 0 1 1 872.48 384 27.84 27.84 0 0 0 928 384a416 416 0 0 0-416-416zM433.44 258.4a29.76 29.76 0 0 0-27.52 28 353.76 353.76 0 0 0 333.12 373.44h34.24l-89.92 89.28a29.44 29.44 0 0 0-8.8 23.36 30.08 30.08 0 0 0 8.48 18.72 29.76 29.76 0 0 0 42.08 0l158.24-156.32a29.92 29.92 0 0 0 8.32-16 17.6 17.6 0 0 0 0-2.88 29.6 29.6 0 0 0-3.84-17.12 5.6 5.6 0 0 0 0-1.28 20.16 20.16 0 0 0-4-4.96l-156.16-157.92a29.76 29.76 0 0 0-42.24 41.76l119.68 120.96a297.6 297.6 0 0 1-62.08 3.04 294.4 294.4 0 0 1-277.76-310.72 29.76 29.76 0 0 0-28-32z"  horiz-adv-x="1024" />

    
    <glyph glyph-name="Collection-Hollow" unicode="&#58991;" d="M519.04 699.52c44-80 97.92-183.36 98.56-184.48a64 64 0 0 1 44.16-33.28c1.12 0 104.8-20.8 185.44-36.32-56.64-69.92-137.44-163.04-138.4-164a64 64 0 0 1-15.2-49.6s12-100.8 21.92-184.64c-64 32-148 74.4-168.64 86.72a64 64 0 0 1-32.96 9.12 61.28 61.28 0 0 1-23.68-4.64c-14.72-5.76-42.4-19.52-90.24-43.52-28.48-14.24-60-29.92-87.68-43.36 9.92 84.16 22.08 185.44 22.08 185.44a64 64 0 0 1-15.2 49.6c-0.96 0.96-77.44 88.96-137.76 159.04l189.44 36.16a64 64 0 0 1 43.68 32l104.48 186.24m1.44 98.72c-7.36 0-21.6-3.52-42.72-41.6C432 673.92 358.72 544 358.72 544S224 518.72 141.6 503.2c-41.44-5.12-56.96-41.44-36.32-67.2 62.08-72.48 165.6-192 165.6-192s-16-129.44-25.92-217.28c-3.84-35.04 16-52.48 40.8-52.48a68.16 68.16 0 0 1 26.4 5.92c67.36 31.04 176 87.84 201.76 98.24 25.92-16 129.44-67.2 201.76-103.52a84.32 84.32 0 0 1 28.8-5.76c25.92 0 42.4 17.44 38.56 52.32C772.64 110.08 757.12 240 757.12 240s103.36 119.04 160 192c20.64 25.92 10.4 62.08-31.04 72.48C803.68 518.72 674.4 544 674.4 544S607.04 673.92 560 756.64a97.6 97.6 0 0 1-36.16 41.44z"  horiz-adv-x="1024" />

    
    <glyph glyph-name="Plus" unicode="&#58992;" d="M928 384a29.76 29.76 0 0 0-29.76-29.76H541.76v-356.48a29.76 29.76 0 0 0-59.52 0V354.24H125.76a29.76 29.76 0 0 0 0 59.52h356.48V770.24a29.76 29.76 0 1 0 59.52 0v-356.48h356.48A29.76 29.76 0 0 0 928 384z"  horiz-adv-x="1024" />

    
    <glyph glyph-name="news" unicode="&#58993;" d="M512-64a102.56 102.56 0 0 0-102.4 102.4 32 32 0 0 0 63.04 0 39.36 39.36 0 0 1 78.72 0 32 32 0 0 0 63.04 0A102.56 102.56 0 0 0 512-64zM823.84 76.8h-624a73.6 73.6 0 0 0-73.44 73.44v8.16a201.12 201.12 0 0 0 67.04 150.56v143.2a327.04 327.04 0 0 0 227.2 312.16h2.24a89.76 89.76 0 0 0 173.44 1.28 325.28 325.28 0 0 0 233.76-313.44v-144a200.48 200.48 0 0 0 67.2-150.56v-8.16a73.6 73.6 0 0 0-73.44-72.64zM509.76 768.96a28 28 0 0 1-27.2-28.8 32 32 0 0 0-22.88-30.4l-21.12-5.76a263.2 263.2 0 0 1-181.76-251.84v-158.08a32 32 0 0 0-12.48-24.96 138.72 138.72 0 0 1-54.56-110.72v-8.16a10.4 10.4 0 0 1 10.4-10.4h624a10.4 10.4 0 0 1 10.4 10.4v8.16a137.92 137.92 0 0 1-54.72 110.56 32 32 0 0 0-12.48 25.12v158.08A262.08 262.08 0 0 1 580.8 705.12l-19.04 4.32a32 32 0 0 0-24.64 30.72 28.16 28.16 0 0 1-27.36 28.8z"  horiz-adv-x="1024" />

    
    <glyph glyph-name="Plusbold" unicode="&#58994;" d="M928 384a69.76 69.76 0 0 0-69.76-69.76H581.76v-276.48a69.76 69.76 0 0 0-139.52 0V314.24H165.76a69.76 69.76 0 0 0 0 139.52h276.48V730.24a69.76 69.76 0 0 0 139.52 0v-276.48h276.48A69.76 69.76 0 0 0 928 384z"  horiz-adv-x="1024" />

    


  </font>
</defs>
</svg>
